<svg width="552" height="72" viewBox="0 0 552 72" fill="none" xmlns="http://www.w3.org/2000/svg">
<path d="M20.1546 70V12.112H0.378613V2.8H51.3546V12.112H31.5786V70H20.1546ZM50.8851 70V21.616H61.1571L62.2131 30.64C63.3651 28.528 64.8051 26.736 66.5331 25.264C68.2611 23.728 70.2771 22.544 72.5811 21.712C74.9491 20.88 77.5411 20.464 80.3571 20.464V32.656H76.3251C74.4051 32.656 72.5811 32.912 70.8531 33.424C69.1251 33.872 67.6211 34.64 66.3411 35.728C65.1251 36.752 64.1651 38.192 63.4611 40.048C62.7571 41.84 62.4051 44.112 62.4051 46.864V70H50.8851ZM100.369 71.152C96.4014 71.152 93.1054 70.48 90.4814 69.136C87.8574 67.792 85.9054 66 84.6254 63.76C83.3454 61.52 82.7054 59.088 82.7054 56.464C82.7054 53.392 83.4734 50.736 85.0094 48.496C86.6094 46.256 88.9454 44.528 92.0174 43.312C95.0894 42.032 98.8654 41.392 103.345 41.392H115.537C115.537 38.832 115.185 36.72 114.481 35.056C113.777 33.328 112.689 32.048 111.217 31.216C109.745 30.384 107.857 29.968 105.553 29.968C102.929 29.968 100.689 30.576 98.8334 31.792C96.9774 32.944 95.8254 34.736 95.3774 37.168H84.0494C84.4334 33.712 85.5854 30.768 87.5054 28.336C89.4254 25.84 91.9534 23.92 95.0894 22.576C98.2894 21.168 101.777 20.464 105.553 20.464C110.097 20.464 113.969 21.264 117.169 22.864C120.369 24.4 122.801 26.64 124.465 29.584C126.193 32.464 127.057 35.952 127.057 40.048V70H117.265L116.113 62.224C115.473 63.504 114.641 64.688 113.617 65.776C112.657 66.864 111.537 67.824 110.257 68.656C108.977 69.424 107.505 70.032 105.841 70.48C104.241 70.928 102.417 71.152 100.369 71.152ZM102.961 62.032C104.817 62.032 106.449 61.712 107.857 61.072C109.329 60.368 110.577 59.408 111.601 58.192C112.689 56.912 113.521 55.504 114.097 53.968C114.673 52.432 115.057 50.8 115.249 49.072V48.88H104.593C102.353 48.88 100.497 49.168 99.0254 49.744C97.5534 50.256 96.4974 51.024 95.8574 52.048C95.2174 53.072 94.8974 54.256 94.8974 55.6C94.8974 56.944 95.2174 58.096 95.8574 59.056C96.4974 60.016 97.4254 60.752 98.6414 61.264C99.8574 61.776 101.297 62.032 102.961 62.032ZM146.314 70L128.458 21.616H140.554L153.322 59.056L166.09 21.616H177.994L160.138 70H146.314ZM201.735 71.152C196.935 71.152 192.711 70.128 189.063 68.08C185.415 65.968 182.567 63.024 180.519 59.248C178.471 55.472 177.447 51.12 177.447 46.192C177.447 41.072 178.439 36.592 180.423 32.752C182.471 28.912 185.319 25.904 188.967 23.728C192.679 21.552 196.967 20.464 201.831 20.464C206.567 20.464 210.695 21.52 214.215 23.632C217.735 25.744 220.455 28.592 222.375 32.176C224.295 35.696 225.255 39.664 225.255 44.08C225.255 44.72 225.255 45.424 225.255 46.192C225.255 46.96 225.191 47.76 225.063 48.592H185.703V41.2H213.639C213.511 37.68 212.327 34.928 210.087 32.944C207.847 30.896 205.063 29.872 201.735 29.872C199.367 29.872 197.191 30.416 195.207 31.504C193.223 32.592 191.655 34.224 190.503 36.4C189.351 38.512 188.775 41.2 188.775 44.464V47.248C188.775 50.256 189.319 52.848 190.407 55.024C191.559 57.2 193.095 58.864 195.015 60.016C196.999 61.104 199.207 61.648 201.639 61.648C204.327 61.648 206.535 61.072 208.263 59.92C210.055 58.768 211.367 57.232 212.199 55.312H223.911C223.015 58.32 221.543 61.04 219.495 63.472C217.447 65.84 214.919 67.728 211.911 69.136C208.903 70.48 205.511 71.152 201.735 71.152ZM231.091 70V0.879997H242.611V70H231.091ZM298.968 71.152C292.632 71.152 287.064 69.712 282.264 66.832C277.528 63.952 273.848 59.952 271.224 54.832C268.6 49.648 267.288 43.6 267.288 36.688C267.288 29.84 268.632 23.792 271.32 18.544C274.008 13.232 277.848 9.104 282.84 6.16C287.896 3.152 293.88 1.648 300.792 1.648C308.6 1.648 315.064 3.536 320.184 7.31199C325.368 11.024 328.728 16.208 330.264 22.864H317.304C316.344 19.536 314.456 16.944 311.64 15.088C308.824 13.232 305.176 12.304 300.696 12.304C296.152 12.304 292.248 13.296 288.984 15.28C285.784 17.2 283.32 20.016 281.592 23.728C279.928 27.376 279.096 31.728 279.096 36.784C279.096 41.84 279.928 46.192 281.592 49.84C283.32 53.488 285.752 56.272 288.888 58.192C292.024 60.048 295.704 60.976 299.928 60.976C306.2 60.976 310.936 59.216 314.136 55.696C317.336 52.176 319.224 47.6 319.8 41.968H302.424V33.232H331.416V70H320.856L319.896 60.784C318.424 62.96 316.728 64.848 314.808 66.448C312.888 67.984 310.616 69.168 307.992 70C305.432 70.768 302.424 71.152 298.968 71.152ZM356.612 71.152C352.708 71.152 349.348 70.384 346.532 68.848C343.78 67.248 341.668 64.88 340.196 61.744C338.724 58.544 337.988 54.608 337.988 49.936V21.616H349.508V48.784C349.508 52.944 350.372 56.112 352.1 58.288C353.892 60.4 356.58 61.456 360.164 61.456C362.468 61.456 364.516 60.912 366.308 59.824C368.164 58.736 369.604 57.168 370.628 55.12C371.716 53.008 372.26 50.448 372.26 47.44V21.616H383.78V70H373.604L372.74 61.936C371.268 64.752 369.124 66.992 366.308 68.656C363.556 70.32 360.324 71.152 356.612 71.152ZM392.278 70V21.616H403.798V70H392.278ZM398.038 13.936C395.926 13.936 394.166 13.296 392.758 12.016C391.414 10.672 390.742 9.04 390.742 7.12C390.742 5.136 391.414 3.536 392.758 2.32C394.166 1.04 395.926 0.399998 398.038 0.399998C400.15 0.399998 401.878 1.04 403.222 2.32C404.63 3.536 405.334 5.136 405.334 7.12C405.334 9.04 404.63 10.672 403.222 12.016C401.878 13.296 400.15 13.936 398.038 13.936ZM433.814 71.152C429.334 71.152 425.334 70.064 421.814 67.888C418.294 65.712 415.542 62.704 413.558 58.864C411.638 55.024 410.678 50.672 410.678 45.808C410.678 40.944 411.67 36.624 413.654 32.848C415.638 29.008 418.39 26 421.91 23.824C425.494 21.584 429.526 20.464 434.006 20.464C437.654 20.464 440.822 21.168 443.51 22.576C446.262 23.92 448.438 25.84 450.038 28.336V0.879997H461.558V70H451.19L450.038 62.992C449.014 64.4 447.766 65.744 446.294 67.024C444.822 68.24 443.062 69.232 441.014 70C438.966 70.768 436.566 71.152 433.814 71.152ZM436.214 61.168C438.966 61.168 441.398 60.528 443.51 59.248C445.622 57.904 447.254 56.08 448.406 53.776C449.558 51.472 450.134 48.816 450.134 45.808C450.134 42.8 449.558 40.144 448.406 37.84C447.254 35.536 445.622 33.744 443.51 32.464C441.398 31.184 438.966 30.544 436.214 30.544C433.59 30.544 431.222 31.184 429.11 32.464C426.998 33.744 425.334 35.536 424.118 37.84C422.966 40.144 422.39 42.8 422.39 45.808C422.39 48.816 422.966 51.472 424.118 53.776C425.334 56.08 426.998 57.904 429.11 59.248C431.222 60.528 433.59 61.168 436.214 61.168ZM492.229 71.152C487.429 71.152 483.205 70.128 479.557 68.08C475.909 65.968 473.061 63.024 471.013 59.248C468.965 55.472 467.941 51.12 467.941 46.192C467.941 41.072 468.933 36.592 470.917 32.752C472.965 28.912 475.813 25.904 479.461 23.728C483.173 21.552 487.461 20.464 492.325 20.464C497.061 20.464 501.189 21.52 504.709 23.632C508.229 25.744 510.949 28.592 512.869 32.176C514.789 35.696 515.749 39.664 515.749 44.08C515.749 44.72 515.749 45.424 515.749 46.192C515.749 46.96 515.685 47.76 515.557 48.592H476.197V41.2H504.133C504.005 37.68 502.821 34.928 500.581 32.944C498.341 30.896 495.557 29.872 492.229 29.872C489.861 29.872 487.685 30.416 485.701 31.504C483.717 32.592 482.149 34.224 480.997 36.4C479.845 38.512 479.269 41.2 479.269 44.464V47.248C479.269 50.256 479.813 52.848 480.901 55.024C482.053 57.2 483.589 58.864 485.509 60.016C487.493 61.104 489.701 61.648 492.133 61.648C494.821 61.648 497.029 61.072 498.757 59.92C500.549 58.768 501.861 57.232 502.693 55.312H514.405C513.509 58.32 512.037 61.04 509.989 63.472C507.941 65.84 505.413 67.728 502.405 69.136C499.397 70.48 496.005 71.152 492.229 71.152ZM521.585 70V21.616H531.857L532.913 30.64C534.065 28.528 535.505 26.736 537.233 25.264C538.961 23.728 540.977 22.544 543.281 21.712C545.649 20.88 548.241 20.464 551.057 20.464V32.656H547.025C545.105 32.656 543.281 32.912 541.553 33.424C539.825 33.872 538.321 34.64 537.041 35.728C535.825 36.752 534.865 38.192 534.161 40.048C533.457 41.84 533.105 44.112 533.105 46.864V70H521.585Z" fill="white"/>
</svg>
